<?xml version="1.0" encoding="UTF-8"?>
<!-- Generated by @neplex/vectorizer (Using visioncortex VTracer) -->
<svg version="1.1" xmlns="http://www.w3.org/2000/svg" width="500" height="500">
<path d="M0 0 C165 0 330 0 500 0 C500 165 500 330 500 500 C335 500 170 500 0 500 C0 335 0 170 0 0 Z " fill="#FEFEFE" transform="translate(0,0)"/>
<path d="M0 0 C20.65633 16.51514 33.41001 38.02361 38.25 64.125 C38.53617 65.31029 38.53617 65.31029 38.82812 66.51953 C42.93983 91.9131 34.64009 119.60797 19.98438 140.32812 C15.23458 146.27367 10.03905 152.1682 4.25 157.125 C3.59 157.125 2.93 157.125 2.25 157.125 C2.25 157.785 2.25 158.445 2.25 159.125 C3.54551 159.5259 4.84102 159.9268 6.17578 160.33984 C20.0881 165.23432 32.63349 173.14331 44.25 182.125 C45.15492 182.80691 46.05984 183.48883 46.99219 184.19141 C79.15742 209.34137 100.86732 245.36099 109.25 285.125 C109.55164 286.37023 109.85328 287.61547 110.16406 288.89844 C113.64056 304.91632 116.38263 326.46408 109.25 341.625 C103.43449 350.6571 97.03982 354.23009 87.25 359.125 C37.75192 359.59958 -11.74966 359.72715 -61.25 359.6875 C-102.28859 359.68943 -102.28859 359.68943 -144.15625 359.69141 C-216.15248 359.06971 -216.15248 359.06971 -225 351.125 C-225.76828 350.465 -226.53656 349.805 -227.32812 349.125 C-239.72607 333.76754 -236.91783 314.28441 -235.26953 295.71094 C-234.63392 291.43502 -233.78996 287.32031 -232.75 283.125 C-232.34781 281.47371 -231.94563 279.82242 -231.53125 278.12109 C-223.6429 248.34256 -209.14301 222.2388 -187.75 200.125 C-186.75227 199.0641 -185.75453 198.0032 -184.72656 196.91016 C-168.20614 179.75747 -148.45046 167.66436 -126.75 158.125 C-127.64461 157.2884 -128.53922 156.4518 -129.46094 155.58984 C-148.86135 136.91332 -161.82543 113.58141 -162.95312 86.19141 C-163.22057 54.78902 -153.65735 29.77876 -132 7 C-119.31887 -5.34845 -103.74941 -13.35299 -86.75 -17.875 C-85.80641 -18.17406 -84.86281 -18.47313 -83.89062 -18.78125 C-55.20642 -26.97674 -23.2846 -17.46345 0 0 Z " fill="#737373" transform="translate(311.75,80.875)"/>
</svg>
