<svg xmlns="http://www.w3.org/2000/svg" fill="none" viewBox="0 0 500 500">
<path d="M0 0 C165 0 330 0 500 0 C500 165 500 330 500 500 C335 500 170 500 0 500 C0 335 0 170 0 0 Z " fill="#293254"/>
<path d="M0 0 C2.09086 -0.01418 4.18172 -0.02836 6.33594 -0.04297 C28.3758 0.7647 50.2243 9.32781 66.625 24.1875 C67.45516 24.92484 68.28531 25.66219 69.14062 26.42188 C84.67853 41.00653 94.7332 61.88989 95.83203 83.20312 C95.86931 86.55167 95.8826 89.84865 95.625 93.1875 C93.10067 95.71183 69.33766 94.37227 67.1875 94.375 C59.57881 94.39627 59.57881 94.39627 51.81641 94.41797 C39.625 94.1875 39.625 94.1875 37.625 92.1875 C37.15129 90.20024 36.74462 88.19673 36.375 86.1875 C34.36052 77.11734 30.85635 69.68506 22.83594 64.4375 C22.10633 64.025 21.37672 63.6125 20.625 63.1875 C19.56152 62.56875 19.56152 62.56875 18.47656 61.9375 C7.55201 56.84644 -7.66932 57.24062 -18.82422 61.04688 C-28.28866 65.49882 -34.72543 71.26716 -39.00781 80.83594 C-42.08288 90.62342 -42.24249 102.5867 -37.875 112 C-32.46723 121.00026 -24.74402 126.32651 -14.67188 129.26953 C-10.22592 130.21935 -6.16589 130.46037 -1.625 130.5625 C27.81151 131.95123 54.79432 142.33541 75.40234 163.59766 C93.20075 184.33639 99.33064 210.3605 97.625 237.1875 C96.42283 248.25545 93.25581 258.09324 88.625 268.1875 C87.96371 269.63576 87.96371 269.63576 87.28906 271.11328 C75.92499 293.80859 54.51271 307.84475 31.09375 315.71094 C20.228 318.64469 8.88586 320.1875 -2.375 320.1875 C-2.375 301.0475 -2.375 281.9075 -2.375 262.1875 C1.915 261.5275 6.205 260.8675 10.625 260.1875 C20.87464 256.47372 28.7339 251.22784 34.5625 241.9375 C38.49673 233.36089 38.19981 222.48458 35.55078 213.57422 C29.97908 201.56072 20.90628 194.75492 8.625 190.1875 C2.60537 188.84428 -3.39158 188.33097 -9.54297 188.03516 C-33.22611 186.80447 -56.68089 176.92563 -74.375 161.1875 C-75.13297 160.52363 -75.89094 159.85977 -76.67188 159.17578 C-92.20547 144.68669 -100.52887 123.68159 -101.67578 102.67969 C-101.7362 73.7202 -95.03765 49.75321 -74.77734 28.45703 C-53.91948 8.64359 -28.36187 0.08721 0 0 Z " fill="#FBBF01" transform="translate(310.375,68.8125)"/>
<path d="M0 0 C5.3509 0.01418 10.7018 0.02836 16.21484 0.04297 C24.24506 0.05264 24.24506 0.05264 32.4375 0.0625 C45.15234 0.23047 45.15234 0.23047 46.15234 1.23047 C46.22663 34.25123 46.2357 67.27214 46.21484 100.29297 C46.20582 118.66082 46.1968 137.02867 46.1875 155.95312 C46.1759 170.23465 46.1643 184.51617 46.15234 199.23047 C26.02234 199.23047 5.89234 199.23047 -14.84766 199.23047 C-14.90125 166.43882 -14.94026 133.64715 -14.97266 100.85547 C-14.99586 82.59461 -15.01906 64.33375 -15.04297 45.51953 C-14.83879 0.26619 -14.83879 0.26619 0 0 Z " fill="#FBBF01" transform="translate(96.84765625,68.76953125)"/>
<path d="M0 0 C29.12498 -0.05359 58.24999 -0.0926 87.375 -0.125 C103.59398 -0.1482 119.81297 -0.17141 136.52344 -0.19531 C175 0 175 0 177 2 C177.2268 11.33116 177.3055 20.66609 177.3125 30 C177.32926 35.15625 177.34602 40.3125 177.36328 45.625 C177.2434 49.70875 177.12352 53.7925 177 58 C168.37967 63.74689 94.60363 60.31101 88.5 60.3125 C64.78641 60.33764 64.78641 60.33764 40.59375 60.36328 C3 60 3 60 0 57 C-0.12418 38.00041 -0.12583 18.99958 0 0 Z " fill="#FBBF01" transform="translate(82,329)"/>
<path d="M0 0 C4.5 -0.5 4.5 -0.5 9 0 C13.54411 6.05881 12.35883 11.53037 12.3125 19 C12.30863 21.70187 12.30477 24.40375 12.30078 27.1875 C12 34 12 34 10 38 C6.98132 39.50934 4.32703 39.17511 1 39 C-2 37 -2 37 -3 34 C-3.15057 29.02241 -3.22161 24.04228 -3.25 19.0625 C-3.27578 16.3516 -3.30156 13.6407 -3.32812 10.84766 C-3 4 -3 4 0 0 Z " fill="#FBBF01" transform="translate(189,396)"/>
<path d="M0 0 C2.31 0 4.62 0 7 0 C13 30.84466 13 30.84466 13 39 C11.02 39 9.04 39 7 39 C6.67 36.36 6.34 33.72 6 31 C4.02 31 2.04 31 0 31 C0 33.64 0 36.28 0 39 C-1.98 39 -3.96 39 -6 39 C-5.54705 30.75323 -4.29193 22.82981 -2.69531 14.73047 C-2.12789 11.68617 -1.68234 8.70334 -1.375 5.625 C-1 2 -1 2 0 0 Z " fill="#FBBF01" transform="translate(245,396)"/>
<path d="M0 0 C2.375 2.25 2.375 2.25 4 5 C4 6.65 4 8.3 4 10 C2.02 10 0.04 10 -2 10 C-2.33 8.68 -2.66 7.36 -3 6 C-3.66 6 -4.32 6 -5 6 C-4.555 11.60134 -3.12346 14.8468 0.0625 19.4375 C3.30433 24.50685 5.32026 27.83878 4 34 C2.5625 37 2.5625 37 0 39 C-4.5625 39.5625 -4.5625 39.5625 -9 39 C-12.31712 34.57717 -12.30467 33.28089 -12 28 C-10.35 28 -8.7 28 -7 28 C-6.67 29.98 -6.34 31.96 -6 34 C-4.515 33.505 -4.515 33.505 -3 33 C-2.47995 27.55188 -3.97584 24.76796 -6.9375 20.25 C-7.6684 19.12078 -8.3993 17.99156 -9.15234 16.82812 C-9.76207 15.89484 -10.3718 14.96156 -11 14 C-12.55024 10.89951 -12.28992 8.42106 -12 5 C-8.48252 -0.39347 -6.2892 -1.76097 0 0 Z " fill="#FBBF01" transform="translate(177,396)"/>
<path d="M0 0 C3.375 1.0625 3.375 1.0625 6.375 5.0625 C6.5625 8.3125 6.5625 8.3125 6.375 11.0625 C4.725 11.0625 3.075 11.0625 1.375 11.0625 C0.88 8.5875 0.88 8.5875 0.375 6.0625 C-0.615 6.0625 -1.605 6.0625 -2.625 6.0625 C-1.76047 11.92208 -0.42753 15.63914 3 20.5 C6.74651 26.06893 7.37586 29.42042 6.375 36.0625 C4.875 38.6875 4.875 38.6875 2.375 40.0625 C-1.625 40.625 -1.625 40.625 -5.625 40.0625 C-8.125 37.9375 -8.125 37.9375 -9.625 35.0625 C-9.875 31.75 -9.875 31.75 -9.625 29.0625 C-7.645 29.0625 -5.665 29.0625 -3.625 29.0625 C-3.295 30.7125 -2.965 32.3625 -2.625 34.0625 C-1.635 34.3925 -0.645 34.7225 0.375 35.0625 C-0.60299 28.1188 -2.10036 23.61037 -6.28516 17.97266 C-9.15785 13.87719 -9.06624 9.91611 -8.625 5.0625 C-5.9636 1.11072 -4.80826 0.0829 0 0 Z " fill="#FBBF01" transform="translate(123.625,394.9375)"/>
<path d="M0 0 C4.5 -0.5 4.5 -0.5 9 0 C12.6166 4.82214 12.25873 7.1354 12 13 C10.35 13 8.7 13 7 13 C6.67 10.69 6.34 8.38 6 6 C5.34 6 4.68 6 4 6 C4 14.91 4 23.82 4 33 C4.66 33 5.32 33 6 33 C6.33 30.69 6.66 28.38 7 26 C8.65 26 10.3 26 12 26 C12.48283 34.20815 12.48283 34.20815 10.4375 37.5625 C7.08477 39.53975 4.8254 39.48687 1 39 C-4.79175 33.20825 -3.20347 26.44546 -3.25 18.5625 C-3.27578 15.94441 -3.30156 13.32633 -3.32812 10.62891 C-3 4 -3 4 0 0 Z " fill="#F4BA03" transform="translate(210,396)"/>
<path d="M0 0 C5.28 0 10.56 0 16 0 C16 1.98 16 3.96 16 6 C14.35 6 12.7 6 11 6 C11 16.89 11 27.78 11 39 C9.02 39 7.04 39 5 39 C5 28.11 5 17.22 5 6 C3.35 6 1.7 6 0 6 C0 4.02 0 2.04 0 0 Z " fill="#FBBF01" transform="translate(134,396)"/>
<path d="M0 0 C1.98 0 3.96 0 6 0 C6 10.89 6 21.78 6 33 C8.31 33 10.62 33 13 33 C13 34.98 13 36.96 13 39 C8.71 39 4.42 39 0 39 C0 26.13 0 13.26 0 0 Z " fill="#FBBF01" transform="translate(263,396)"/>
<path d="M0 0 C1.65 0 3.3 0 5 0 C5 11.22 5 22.44 5 34 C7.64 34 10.28 34 13 34 C13 35.65 13 37.3 13 39 C8.71 39 4.42 39 0 39 C0 26.13 0 13.26 0 0 Z " fill="#FBBF01" transform="translate(85,396)"/>
<path d="M0 0 C1.98 0 3.96 0 6 0 C6 12.87 6 25.74 6 39 C4.02 39 2.04 39 0 39 C0 26.13 0 13.26 0 0 Z " fill="#FBBF01" transform="translate(228,396)"/>
<path d="M0 0 C1.65 0 3.3 0 5 0 C5 12.87 5 25.74 5 39 C3.35 39 1.7 39 0 39 C0 26.13 0 13.26 0 0 Z " fill="#FBBF01" transform="translate(103,396)"/>
<path d="M0 0 C0.99 0 1.98 0 3 0 C3 9.24 3 18.48 3 28 C2.01 28 1.02 28 0 28 C0 18.76 0 9.52 0 0 Z " fill="#293254 " transform="translate(192,401)"/>
<path d="M0 0 C0.33 0 0.66 0 1 0 C2.09083 4.36332 2.07597 8.518 2 13 C1.01 13 0.02 13 -1 13 C-0.67 8.71 -0.34 4.42 0 0 Z " fill="#293254" transform="translate(248,408)"/>
</svg>
